<svg id="Layer_1" data-name="Layer 1" xmlns="http://www.w3.org/2000/svg" viewBox="0 0 494.89 147.58"><defs><style>.cls-1{fill:#6b7381;}</style></defs><path d="M84.44,318.73c.31.31.31,1.38.46,2.14-.61,0-1.53.3-2,0-3.21-2.44-5-2.44-8.25,0-.45.3-1.37.15-2,.15.15-.76,0-2,.31-2.13,1.83-1.22,3.66-2.14,5.8-3.36C80.78,316.75,82.61,317.67,84.44,318.73Z" transform="translate(-38.5 -274.89)"/><path d="M123.35,318.73c.46.31.46,1.53.61,2.29-.76-.15-1.53.15-2.14-.15-3-2.29-5-2.44-8.08,0-.77.61-1.53,1.22-2.14,0a2.59,2.59,0,0,1,.61-2.14,47.52,47.52,0,0,1,5.49-3.05A39.21,39.21,0,0,1,123.35,318.73Z" transform="translate(-38.5 -274.89)"/><path d="M396.8,351.25l13.31,43.64h20.23l13.31-43.64Zm28.2,1.63L423.72,357h-6.94l-1.41-4.12Zm-.43,32.37c-1.48,1.3-2.53,2.34-4.11,3.63h-.27c-1.58-1.29-2.6-2.33-4.1-3.63l-5.47-4.72,6.11-22.23h7l6.12,22.36Z" transform="translate(-38.5 -274.89)"/><polygon class="cls-1" points="62.13 95.5 62.11 92.91 57.75 92.91 57.75 95.5 62.13 95.5"/><path class="cls-1" d="M152.9,315.31a2.78,2.78,0,0,1-1.37-2.75V293.64c0-1.07,0-2.29-1.38-2.29s-1.07,1.22-1.07,2.14v20.29c-3.81.62-3.81.62-4.88-2.89-7.93-24.27-29.6-39.22-52.34-35.4-18.92,3.05-31.73,15.1-39.06,34.79-1.37,3.66-1.22,3.66-4.73,3.81-5.34.15-9.46,4.73-9.46,10.68s-.15,11.9,0,17.85a12,12,0,0,0,2.9,7.79c2.44,2.59,5.19,3.2,8.39,3a2.47,2.47,0,0,1,2.9,1.83A24.63,24.63,0,0,0,55.7,360c4.58,6.1,10.38,9.46,17.09,10.37H80l1.27-2.59H75.54c-13-.15-23-11.44-23.19-25.94-.16-7.48-.46-15.11.91-22.28,3.36-18.92,13.43-31.58,29.3-38.75H83c.77,3.35,1.38,6.86,2,10.22.76,5,3.81,7.93,8.24,7.93h10.22c4.43,0,7.48-2.9,8.24-7.93a23.25,23.25,0,0,0,.76-4.73c.16-.61-.45-1.37-.76-2-.46.45-1.37.91-1.52,1.37-.46,1.68-.62,3.36-.92,5-.61,3.36-2.44,5.34-5.49,5.34-3.67.16-7.18.16-10.68,0-2.29,0-4.28-1.06-4.89-3.35a121.85,121.85,0,0,1-2.74-13,37.08,37.08,0,0,1,17.7-1.68c17.54,2.44,30.06,12.82,37.53,30.67a54,54,0,0,1,3.82,20.45c0,5.64.3,11.44-.46,17.09-1.83,12.66-11.44,21.36-22.89,21.51h-5.62l1.27,2.59h7.25c8.09-1.06,14.65-5.49,19.07-13.73,1.38-2.29,2.6-3.2,5-3.2,6.1-.16,9.92-4.73,9.92-11.75,0-5.5.15-11.14,0-16.63C158.09,320.65,156.41,317.29,152.9,315.31Zm-103,8.55c-3.66-.92-6.25.76-8.39,3.51-1.83-6.41,2.9-11.45,9.31-10.23C50.51,319.28,50.21,321.57,49.9,323.86Zm97,0c-.31-2.29-.76-4.43-1.07-6.57,6-1.83,10.53,2.9,9.46,10.23C153.05,324.62,150.46,322.94,147,323.86Z" transform="translate(-38.5 -274.89)"/><path d="M103.57,396.69v8.7h16.79v-8.7Zm-27.61,0v8.7H93.2v-8.7Zm32.19-37.08h-4.58v21.67c1.07,2.75,2.14,5.19,3.21,7.78l3.2,7.63,3.82,8.7,7.32,17.09h17.7ZM58,422.48H74.89l7.47-17.09,3.67-8.7,3.35-7.63c1.38-2.9,2.6-5.8,3.82-8.85v-20.6H88.62Z" transform="translate(-38.5 -274.89)"/><path d="M164.77,345.51V338h34v7.48Zm0,48.43v-7.48h34v7.48Zm12.88,0V338h8.18v55.91Z" transform="translate(-38.5 -274.89)"/><path d="M212,393.94V352.2h7.55l.79,8.82v32.92Zm25.66,0V366.78a8.08,8.08,0,0,0-2-5.83,7.31,7.31,0,0,0-5.52-2.06q-9.82,0-9.84,11.58l-2.44-10.71h3.23a8.38,8.38,0,0,1,3.07-6.28c1.81-1.37,4.46-2.07,8-2.07q6.6,0,10.23,4c2.42,2.68,3.62,6.45,3.62,11.34v27.16Z" transform="translate(-38.5 -274.89)"/><path d="M255.41,359.53V352.2H293.2v7.33Zm10.47,14.73V339.61h8.35v34.65Zm17.95,20.47q-9.48,0-13.72-3.93c-2.82-2.64-4.23-6.83-4.23-12.61V371.1h8.35v6.7c0,3.31.8,5.71,2.42,7.2s4.27,2.25,8,2.25a41.11,41.11,0,0,0,4.17-.22c1.48-.14,3.15-.33,5-.57l.94,7.32c-1.84.32-3.63.55-5.38.71S285.81,394.73,283.83,394.73Z" transform="translate(-38.5 -274.89)"/><path d="M327.15,394.73q-10.68,0-16.48-5.62c-3.87-3.74-5.81-9.1-5.81-16.12q0-10.25,4.92-15.9t13.9-5.68q8.46,0,13.09,5.13t4.63,14.88c0,1.91-.08,3.7-.24,5.35H311.87V370.4h22c0-3.76-.89-6.63-2.68-8.65a9.37,9.37,0,0,0-7.4-3,10,10,0,0,0-8.25,3.62q-2.92,3.63-2.93,10.24,0,7.25,4,11t11.48,3.77a45.58,45.58,0,0,0,5.12-.28c1.68-.21,3.39-.48,5.12-.82l1,7.33a57,57,0,0,1-6.77.91C330.53,394.66,328.72,394.73,327.15,394.73Z" transform="translate(-38.5 -274.89)"/><path d="M350.3,393.94v-7.32h27.87v7.32Zm1.57-34.41V352.2h13.94l.79,7.33Zm7.72,34.41V352.2h6.77l1.57,12v29.77Zm8.34-18-2.43-13.06h3.22c.47-7.66,4.31-11.51,11.5-11.51q6.45,0,9.37,3.71c1.94,2.46,2.91,6.46,2.91,12h-8.27q0-4.56-1.35-6.57a4.92,4.92,0,0,0-4.39-2,8.59,8.59,0,0,0-7.94,4.54Q367.93,367.61,367.93,376Z" transform="translate(-38.5 -274.89)"/><path d="M447.94,393.94v-7.32h16.69v7.32Zm2.36-34.41V352.2h21.89v7.33Zm17.45-13.94a5.83,5.83,0,0,1-4.12-10,5.83,5.83,0,0,1,8.25,8.24A5.57,5.57,0,0,1,467.75,345.59Zm-3.9,48.35V354.57h8.34v39.37Zm7.55,0v-7.32H485v7.32Z" transform="translate(-38.5 -274.89)"/><path d="M496.37,393.94l-4.72-41.74h7.87l3.15,35.44h.71l4.92-35.44h7.64l-3.51,8.59h-.55L507,393.94Zm20.87,0-4.88-33.15h-.63l-3.43-8.59h7.64l4.92,35.44h.71l3.55-35.44h8.27l-5.91,41.74Z" transform="translate(-38.5 -274.89)"/><path d="M144.54,329.21a54.09,54.09,0,0,0-3.82-20.47c-7.48-17.87-20-28.26-37.57-30.7a37.16,37.16,0,0,0-17.72,1.68,122.06,122.06,0,0,0,2.75,13c.61,2.29,2.6,3.36,4.89,3.36,3.51.15,7,.15,10.69,0,3,0,4.89-2,5.5-5.34.3-1.68.46-3.36.91-5,.16-.46,1.07-.92,1.53-1.38.31.61.92,1.38.77,2a23.25,23.25,0,0,1-.77,4.73c-.76,5-3.82,7.94-8.25,7.94H93.22c-4.43,0-7.49-2.9-8.25-7.94-.61-3.36-1.22-6.87-2-10.23h-.45c-15.89,7.18-26,19.85-29.33,38.79-1.38,7.18-1.07,14.82-.92,22.3.16,14.51,10.24,25.81,23.22,26h5.7l5.51-11.29h6.48v-.18a2,2,0,0,1,2-2h6.32a2.05,2.05,0,0,1,2,2.05v.13h6.49l5.51,11.29h5.61c11.46-.16,21.08-8.86,22.92-21.54C144.85,340.66,144.54,334.86,144.54,329.21Zm-11.3-2.14c0,6.87-3.51,10.69-9.62,10.69H73.06c-6.11,0-9.48-3.82-9.48-10.69v-15c0-5.65,3.52-9.62,8.56-9.78h51.93c5.81,0,9.17,3.82,9.17,10.39Z" transform="translate(-38.5 -274.89)"/><polygon points="55.77 108.85 58.49 90.55 61.57 90.55 63.78 109.18 59.78 112.92 55.77 108.85"/><polygon points="61.53 90.18 58.57 90.18 57.93 86.2 62.22 86.2 61.53 90.18"/></svg>